<svg xmlns="http://www.w3.org/2000/svg" viewBox="0 0 1326.22 748.84"><defs><style>.cls-1{fill:#b5eaca;}.cls-2{fill:#4c4c4c;}.cls-3{fill:#f09959;}.cls-4{fill:#e38540;}.cls-5{fill:#00b533;}.cls-6{fill:#00841f;}.cls-7{fill:#fff;}.cls-8{fill:#062d5b;}.cls-9{fill:#686a6d;}.cls-10{fill:#9b8f6b;}.cls-11,.cls-12{fill:#303c60;}.cls-11{opacity:0.5;}.cls-13{fill:#156d00;}.cls-14{fill:#006d34;}.cls-15{fill:#9cd499;}.cls-16{fill:#74b570;}.cls-17{fill:#f39892;}</style></defs><g id="Layer_2" data-name="Layer 2"><g id="Слой_1" data-name="Слой 1"><path class="cls-1" d="M177.22,728S-99.23,230.16,107.7,114c165.1-92.68,309.92,69.52,486.6-43.44C822.24-75.19,995,22.38,1118.55,203.78,1211.23,339.91,1260.32,428,1306.81,534c72.41,165.09-81.1,202.75-81.1,202.75Z"/><path class="cls-2" d="M941,731.28l-126,.23c-1.8,0-3.3-1.83-3.4-4.07s1.22-4.19,3-4.35l125.53-11.28c10.19-.91,19.48,3,19.74,8.85S951.27,731.26,941,731.28Z"/><path class="cls-3" d="M777.86,713.43c4.34-1.08,12.31-24.86,12.31-24.86s-91-30.68-129.62-50.68l-53.77,62.2C675.85,717.3,774.64,714.24,777.86,713.43Z"/><path class="cls-3" d="M763.86,679.16c22.4,5.79,58-8.69,64.69-7.24s34.51,15.93,41.16,23.17,30.27,29.69,26,31.14-33.9-20.28-37.53-21-5.45,4.34-35.11,10.13-65.52-9.17-65.52-9.17Z"/><path class="cls-4" d="M799.49,701.61s34.51-8.69,38.75-7.24,30,7.24,47.82,27.51c-16.95-5.07-41.17-6.52-47.82-6.52S799.49,701.61,799.49,701.61Z"/><path class="cls-3" d="M807.74,687.12c14.73,18.83,52.14,24.62,57.81,31.14s-13.63,3.75-23.81,2.9c-25.9-2.17-44,8.32-65,1.81s-25.7-22.09-25.7-22.09Z"/><path class="cls-5" d="M531.59,352.92c-66.46,32.66-96.87,56.55-117.5,145.61S392.36,672.31,403.22,735.3c73.77,2.14,285.21,10.11,285.21,10.11s-4-129.34-25.63-231.67C642.16,416,612.84,378,587.86,360.6S531.59,352.92,531.59,352.92Z"/><path class="cls-6" d="M547.67,656c-23.82-23.9-17.37-185.73-56.47-258.49L418.43,533.29l-22,113c-.18,32.62,2.26,62.74,6.79,89a2.9,2.9,0,0,0,3.12,2.37c60.07-5.25,63.41-31.36,255.3-60.33C666.17,676.66,563.89,672.27,547.67,656Z"/><path class="cls-7" d="M525.27,353C516.85,372.6,534,398.33,561,418.6s43.45,9.18,42-6.75-2.9-32.83-9.17-43-56.48-18.82-56.48-18.82S526.72,349.57,525.27,353Z"/><path class="cls-3" d="M557.37,254.47l-25.78,98.45a22.56,22.56,0,0,0,1.88,20c10.5,17,33.08,49.53,49.24,45.22,21.73-5.79,7.24-46.34,7.24-46.34l29-102.11Z"/><path class="cls-4" d="M596.86,260.55l-25.73-10.42-7.73,20.1c3.54,85.57,14.44,120.5,31.18,130.23.9-13.2-4.63-28.68-4.63-28.68l21-76Z"/><path class="cls-3" d="M668.34,299.12c-5,34-18.41,63.1-42.69,59.52s-65.95-32-60.93-66,59.51-74.68,83.78-71.1S673.35,265.14,668.34,299.12Z"/><path class="cls-3" d="M483.6,426.85c1.93-7.72-29-12.33-33.9-6.08-48.63,61.85-124.28,229-107.3,259.14,19.55,34.75,230.18-10.89,234.52-12s-7.6-33.67-7.6-33.67-118,2.17-137.94-11.23C493.28,506.83,468.93,485.33,483.6,426.85Z"/><path class="cls-5" d="M471.65,392.09C420.56,415,365.21,563.7,365.21,563.7s13,3.26,55.39,17.37c17.61,5.87,34.67,11.32,34.67,11.32s40.55-52.62,53.31-93.86C525,445.41,503.15,378,471.65,392.09Z"/><path class="cls-7" d="M370.69,549.74c47.78,6.16,76.33,22.8,90.84,34.17,2.18-3,4.82-6.78,7.74-11.07-10.06-9.42-31.92-26.21-63.72-30.66-12.91-1.8-22.74-3-30.21-3.71C373.58,542.65,372,546.44,370.69,549.74Z"/><path class="cls-7" d="M381.65,523.85q-1.23,2.77-2.38,5.43c42-1.68,82.24,18.77,92.41,31.25,1.2,1.46,2.25,2.75,3.19,3.91q1.58-2.43,3.2-5c-6.88-6.78-19.11-17.67-31.49-23.07C421.24,525.33,384.92,524,381.65,523.85Z"/><polygon class="cls-8" points="663.09 676.87 609.5 676.87 601.54 576.82 671.78 576.82 663.09 676.87"/><path class="cls-3" d="M562.8,634.63c14.84-.36,39.1-17.38,47.43-22.09s55.39-14.84,57.56-9.77-39.46,15.56-39.46,15.56l31.14,1.45s9,13.76,9.77,22.81-2.89,22.09-2.89,22.09l-13.76-12.31s-11.22,6.15-25.34,14.48-39.47,3.26-50.33,1.09-36.2-10.14-36.2-10.14Z"/><path class="cls-4" d="M368.74,629.92s24-13.88,48.15-10.5c13.84,1.94,15.34,4.19,14.49,3.62q4.49-8.41,8.37-16.18C427.18,607.44,394.94,610.84,368.74,629.92Z"/><path class="cls-2" d="M1126.81,459.4V706c0,8.2-7.72,14.85-17.25,14.85h-51.77c-8.84,0-16,6.15-16,13.75h74.5c16,0,29-11.18,29-25V459.4Z"/><path class="cls-9" d="M1089,670.55l-8.22-1.56c-5.42-1-8.88-5.7-7.68-10.37l64.43-250.27c1.2-4.66,6.62-7.63,12-6.6l8.22,1.57c5.43,1,8.88,5.69,7.68,10.36L1101,663.94C1099.79,668.61,1094.37,671.58,1089,670.55Z"/><path class="cls-2" d="M1091.19,671l-1-.19c-4.19-.79-6.86-4.39-5.93-8l65.42-254.13c.92-3.6,5.11-5.9,9.3-5.1l1,.18c4.19.8,6.85,4.4,5.93,8L1100.5,665.88C1099.57,669.48,1095.38,671.78,1091.19,671Z"/><path class="cls-10" d="M1262.7,748.84H156.08a9.27,9.27,0,1,1,0-18.54H1262.7a9.27,9.27,0,0,1,0,18.54Z"/><path class="cls-3" d="M568.53,212c-50.14,31.11-18.41,64.74-31.74,122.5,8.19,2.81,17.14-13.33,22.85-26s10.79-31.1,12.7-30.47,5.07,29.2,5.07,29.2L585,311s10.79-19,10.16-23.48-9.52-26,1.27-36.18C603.39,244.84,632,259,632,259l-27.93-40Z"/><path class="cls-11" d="M568.53,212c-50.14,31.11-18.41,64.74-31.74,122.5,8.19,2.81,17.14-13.33,22.85-26s10.79-31.1,12.7-30.47,5.07,29.2,5.07,29.2L585,311s10.79-19,10.16-23.48-9.52-26,1.27-36.18C603.39,244.84,632,259,632,259l-27.93-40Z"/><path class="cls-12" d="M678.33,245.65c-2.54,30.47-49.76,20.94-71.72-6.34-20.94-26-38.18-8.09-59,.63-34.91,14.6,4.45-69.82,74.9-56.49C675.34,193.45,680,225.37,678.33,245.65Z"/><path class="cls-3" d="M573.36,278c2.17,11.36-2.08,21.72-9.48,23.13s-15.16-6.66-17.33-18S548.63,261.4,556,260,571.2,266.64,573.36,278Z"/><rect class="cls-13" x="857.21" y="193.33" width="255.23" height="152.05" rx="5.07"/><rect class="cls-7" x="865.03" y="217.78" width="239.59" height="122.94" rx="4.42"/><rect class="cls-7" x="867.76" y="201.91" width="9.51" height="8.56" rx="2.06"/><rect class="cls-7" x="885.05" y="201.91" width="9.51" height="8.56" rx="2.06"/><rect class="cls-7" x="902.35" y="201.91" width="9.51" height="8.56" rx="2.06"/><path class="cls-5" d="M1096.5,333.48H873.16V225H1096.5ZM874,332.67H1095.7V225.83H874Z"/><rect class="cls-5" x="873.56" y="311.15" width="222.54" height="0.8"/><rect class="cls-5" x="873.56" y="289.61" width="222.54" height="0.8"/><rect class="cls-5" x="873.56" y="268.08" width="222.54" height="0.8"/><rect class="cls-5" x="873.56" y="246.56" width="222.54" height="0.8"/><rect class="cls-5" x="1063.91" y="225.43" width="0.8" height="107.65"/><rect class="cls-5" x="1032.12" y="225.43" width="0.8" height="107.65"/><rect class="cls-5" x="1000.32" y="225.43" width="0.8" height="107.65"/><rect class="cls-5" x="968.53" y="225.43" width="0.8" height="107.65"/><rect class="cls-5" x="936.74" y="225.43" width="0.8" height="107.65"/><rect class="cls-5" x="904.95" y="225.43" width="0.8" height="107.65"/><path class="cls-14" d="M1087.77,239h-7.48a5.19,5.19,0,0,1,0-10.38h7.48a5.19,5.19,0,1,1,0,10.38Z"/><rect class="cls-14" x="1075.1" y="272.09" width="17.86" height="10.38" rx="2.47"/><rect class="cls-5" x="908.56" y="250" width="24.62" height="15.33" rx="3.53"/><rect class="cls-7" x="912.03" y="252.16" width="17.68" height="11.01" rx="2.54"/><rect class="cls-5" x="1036" y="314.45" width="24.62" height="15.33" rx="3.53"/><rect class="cls-7" x="1039.47" y="316.61" width="17.68" height="11.01" rx="2.54"/><path class="cls-5" d="M995.45,254.47H981.69a1.69,1.69,0,0,1,0-3.38h13.76a1.69,1.69,0,0,1,0,3.38Z"/><path class="cls-5" d="M995.45,259.78H981.69a1.69,1.69,0,0,1,0-3.38h13.76a1.69,1.69,0,0,1,0,3.38Z"/><path class="cls-5" d="M965,318.55H951.28a1.69,1.69,0,1,1,0-3.38H965a1.69,1.69,0,1,1,0,3.38Z"/><path class="cls-5" d="M965,323.86H951.28a1.69,1.69,0,1,1,0-3.38H965a1.69,1.69,0,1,1,0,3.38Z"/><path class="cls-5" d="M893.71,278.36H880a1.69,1.69,0,0,1,0-3.38h13.75a1.69,1.69,0,0,1,0,3.38Z"/><path class="cls-5" d="M893.71,283.67H880a1.69,1.69,0,0,1,0-3.38h13.75a1.69,1.69,0,0,1,0,3.38Z"/><path class="cls-5" d="M1026.59,254.47h-13.76a1.69,1.69,0,0,1,0-3.38h13.76a1.69,1.69,0,1,1,0,3.38Z"/><path class="cls-5" d="M1026.59,259.78h-13.76a1.69,1.69,0,0,1,0-3.38h13.76a1.69,1.69,0,1,1,0,3.38Z"/><rect class="cls-15" x="908.2" y="293.57" width="26.79" height="15.56" rx="3.21"/><path class="cls-7" d="M920.15,306.57h-.06A1.64,1.64,0,0,1,919,306l-3.81-4.34a1.6,1.6,0,1,1,2.4-2.11l2.7,3.06,6.93-6.79a1.62,1.62,0,0,1,2.27,0,1.6,1.6,0,0,1,0,2.26l-8.14,8A1.62,1.62,0,0,1,920.15,306.57Z"/><rect class="cls-15" x="1003.41" y="228.04" width="26.79" height="15.56" rx="3.21"/><path class="cls-7" d="M1015.37,241h-.06a1.62,1.62,0,0,1-1.14-.55l-3.81-4.33a1.6,1.6,0,1,1,2.4-2.11l2.7,3.06,6.94-6.79a1.6,1.6,0,1,1,2.23,2.29l-8.14,8A1.62,1.62,0,0,1,1015.37,241Z"/><path class="cls-5" d="M1023.33,300.81a7.24,7.24,0,1,1-7.24-7.24A7.24,7.24,0,0,1,1023.33,300.81Z"/><path class="cls-5" d="M929.56,322.9a7.25,7.25,0,1,1-7.24-7.25A7.25,7.25,0,0,1,929.56,322.9Z"/><rect class="cls-13" x="821.22" y="323.37" width="152.83" height="87.39" rx="2.51"/><rect class="cls-7" x="824.57" y="327.22" width="146.13" height="79.7" rx="2.34"/><rect class="cls-5" x="828.61" y="332.11" width="138.05" height="69.93" rx="2.63"/><circle class="cls-7" cx="897.64" cy="367.07" r="24.26"/><path class="cls-5" d="M918.53,367.07a20.89,20.89,0,1,1-20.89-20.89A20.89,20.89,0,0,1,918.53,367.07Z"/><polygon class="cls-7" points="907.94 365.95 900.3 370.36 892.66 374.77 892.66 365.95 892.66 357.13 900.3 361.55 907.94 365.95"/><path class="cls-5" d="M811.53,114H716a4.35,4.35,0,1,1,0-8.69h95.58a4.35,4.35,0,0,1,0,8.69Z"/><path class="cls-5" d="M1061.34,481.11H965.76a4.35,4.35,0,0,1,0-8.69h95.58a4.35,4.35,0,1,1,0,8.69Z"/><path class="cls-5" d="M1061.34,497H965.76a4.35,4.35,0,0,1,0-8.69h95.58a4.35,4.35,0,1,1,0,8.69Z"/><path class="cls-5" d="M1061.34,514.42H965.76a4.35,4.35,0,0,1,0-8.69h95.58a4.35,4.35,0,1,1,0,8.69Z"/><path class="cls-5" d="M873.08,130.65H716a4.35,4.35,0,1,1,0-8.69H873.08a4.35,4.35,0,0,1,0,8.69Z"/><path class="cls-16" d="M194.69,371.45c-25,22.8-14.12,45.61,4.35,88s21.72,198.76,21.72,198.76L205.56,656s2.17-160.74-18.47-204.18-29.32-65.17-47.79-51.05S194.69,371.45,194.69,371.45Z"/><path class="cls-15" d="M208.42,341.92c-3-13.52-21-28.14-45.14-40.55,3.58,19.93,15.06,52.53,3.18,59.22-16,9-1.57-36.5-7.75-61.51a297.46,297.46,0,0,0-74.9-24.57c0,.09.07.18.1.27,14.12,35.85,32.59,50,25,55.4-5.72,4.08-24.35-37.32-48.95-58.54-18.46-1-34.09,1.52-43.33,8.83-14.28,11.31-23.87,21.34-9.5,55.78a64.52,64.52,0,0,0,31.19,11.3c32.58,3.26,47.78,4.35,25,15.21-11.17,5.32-29.89-.3-45.07-3.72,4.92,9.07,11,19.34,18.33,31A115,115,0,0,0,51.81,409.5c10.5,2,19.65,2,24.5,0,15.21-6.52,54.3-27.15,64.08-18.46C150,399.5,68,404.89,73.66,426.5c39.73,22.89,85.2,12,93.24-9C177.69,389.24,217.55,382.6,208.42,341.92Z"/><path class="cls-16" d="M126.27,496.35c43.44-32.59,88-2.17,110.78,32.58s6.52,113,6.52,113-8.69,0-8.69-3.25,23.89-92.32-32.58-132.51C167,481,141.48,493.09,138.22,505s14.12,33.67,14.12,33.67Z"/><path class="cls-15" d="M226.19,429.37c-43.44,0-57.56,67.34-45.62,106.44s28.24,111.87,28.24,111.87l10.86-10.86s-41.27-102.1-31.49-147.71,33.67-53.22,38-53.22S226.19,429.37,226.19,429.37Z"/><path class="cls-16" d="M189.75,536.11a31.44,31.44,0,0,0-11.43-9.61,85.61,85.61,0,0,0,2.25,9.31c5.45,17.81,11.79,42.61,17.09,64.34.48-2.78,1.22-7.07,2.37-13.68.27-1.57.48-3.26.63-5.06A419.82,419.82,0,0,1,189.75,536.11Z"/><path class="cls-15" d="M177.88,536.44c-82.55-34.76-39.06-82.45-111.83-51-5.12,2.22-11.37,7.81-17.62,15.52a54.11,54.11,0,0,0,23.05,1.85C93.2,499.61,85.6,517,49.76,521.33A80.91,80.91,0,0,0,33,524.87c-17.08,32.8-24.77,76,11.36,91,7.12,2.95,15.92,4.64,25.72,5.28C81.2,612.23,67.33,561,84.52,568c16.5,6.8-5.18,44-2.21,53.33a238.41,238.41,0,0,0,51.57-7.23c6.82-3.83,12-9,13.63-15.69,5.43-22.81-30.41-36.93-31.5-56.48-1-18,13.14,39.54,50.59,48C200.46,574.15,216.46,552.68,177.88,536.44Z"/><path class="cls-15" d="M236.69,475c-8.69-18.47,14.12-22.81,13-8.69-1,12.51-1.07,42.92,11.77,51.2,22.12-2.4,52.23-11.31,75-24.9a9.27,9.27,0,0,0-1-5.67c-9.78-19.54-72.77-35.84-53.22-42.35,15.57-5.19,42.85,25.44,64.83,40.87,13.21-10,22.05-22,22.05-35.29,0-18-21.92-38.47-50.27-48.23-12.76,1.28-24.62,8.26-43.13,18.75-27.35,15.5-21-9.56,4.83-24.43-22.32,1.16-44.58,10.7-61,33.48,0,0,1.55,9.74-8.76,24.81-28.12,41.1,4.34,65.09,43.13,63.53C251.81,507.24,242.69,487.74,236.69,475Z"/><path class="cls-16" d="M128.88,494.51c-21.24,16.41-44.83,35.6-73.79,48.63s-23.18,55.52-23.18,55.52S27.57,562,51.71,549.42,91.77,521.9,110.12,519a265.55,265.55,0,0,0,28.48-5.8s-5.79-11.58-2.41-15.93S128.88,494.51,128.88,494.51Z"/><path class="cls-16" d="M24.19,301.78c77.72,20.75,134.68,70.47,145.3,82.54s10.62,15.45,10.62,15.45l-8.2,15.45-3.86-1.93s6.27-13-10.14-29.93c-28.31-29.14-62.76-52.14-86.41-62.28S24.19,301.78,24.19,301.78Z"/><path class="cls-17" d="M170.8,625.52H277a0,0,0,0,1,0,0v68.22A38.23,38.23,0,0,1,238.72,732H209a38.23,38.23,0,0,1-38.23-38.23V625.52A0,0,0,0,1,170.8,625.52Z"/></g></g></svg>