<svg xmlns="http://www.w3.org/2000/svg" viewBox="0 0 1225.73 720.79"><defs><style>.cls-1{fill:#b5eaca;}.cls-2{fill:#303c60;}.cls-3{fill:#f09959;}.cls-4{fill:#6791c9;}.cls-5{fill:#00b533;}.cls-6,.cls-7{fill:#00841f;}.cls-7{opacity:0.5;}.cls-8{fill:#e38540;}.cls-9{fill:#f5ce5c;}.cls-10{fill:#808284;}.cls-11{fill:#686a6d;}.cls-12{fill:#b6b6b7;}.cls-13{fill:#03661a;}.cls-14{fill:#006646;}.cls-15{fill:#dbe5eb;}.cls-16{fill:#f37168;}.cls-17{fill:#f2e5de;}.cls-18{fill:#7bcee8;}.cls-19{fill:#fff;}.cls-20{fill:#7fd998;}.cls-21{fill:#9cd499;}.cls-22{fill:#74b570;}.cls-23{fill:#a2dff2;}.cls-24{fill:#59bb6e;}</style></defs><g id="Layer_2" data-name="Layer 2"><g id="Слой_1" data-name="Слой 1"><path class="cls-1" d="M160.09,707.7s-288.19-181-91.24-375.08S529.38-59.84,706.06,16.91s160.79,173.78,354.85,314.26,149.16,252,114.41,308.47-40.55,71-40.55,71Z"/><path class="cls-2" d="M380.21,193.87c42.68-38,74-15.34,97.36,10,18.6,20.2,21.2,24.67,36.57,45.6,2.28,3.11,4,6.56,4.1,10.41.43,23.13,12.27,121-.89,154.7C502,453.92,312.87,471.92,312.87,471.92Z"/><path class="cls-2" d="M501.35,437a2,2,0,0,1-.1-3.9c5.61-.28,10.18-2.81,14-7.71,21.21-27.48,9.28-119.22-1.11-169.09a2,2,0,1,1,3.82-.8c2.27,10.89,9.85,49.56,12.22,89.83,2.44,41.36-1.55,69.1-11.85,82.44-4.46,5.78-10.13,8.88-16.85,9.22Z"/><path class="cls-2" d="M396.22,182.53c-82,45.34-32,198.71-136,253.39-28.82,15.14-117.36,92-59.35,193.37,37.95,66.3,151.37,52,188.71-6.67S396.22,182.53,396.22,182.53Z"/><path class="cls-2" d="M178,531.22l-.26,0A2,2,0,0,1,176,529c.07-.54,1.86-13.45,10-30.56a134,134,0,0,1,49.08-55.29c48.13-30.63,80.08-59.49,117.85-201.78a2,2,0,1,1,3.77,1c-18.25,68.76-36.35,115.24-57,146.28-19.13,28.82-38.82,42.68-62.57,57.79-50,31.82-57.28,82.57-57.35,83.07A2,2,0,0,1,178,531.22Z"/><path class="cls-2" d="M179.75,491.5a1.95,1.95,0,0,1-1.65-3,148.6,148.6,0,0,1,45-45.9c67.6-43.71,78.78-68.84,134.61-212.77a1.95,1.95,0,1,1,3.63,1.41c-27.91,72-44.59,114.13-62.84,144-19.59,32.1-41.71,50.2-73.28,70.62a144.74,144.74,0,0,0-43.84,44.7A2,2,0,0,1,179.75,491.5Z"/><path class="cls-3" d="M393.39,278.24c-28.24,58.65-23.9,111.86-23.9,111.86s3.26,20.64,16.29,25,31.5-8.69,30.41-26.06,4.35-59.74,10.86-74.94S393.39,278.24,393.39,278.24Z"/><path class="cls-4" d="M244.19,685.74c1.78,16-2.23,14.67,12,17.34S295.75,696,295.75,696l-28.45-52.9Z"/><path class="cls-3" d="M372.9,358.61c-8,26-68,6-89,12s-39,94-42,173,1,142,9,152,140,14,152,10-100-54-100-54-7-92,2-139,90-109,90-109Z"/><path class="cls-3" d="M400.9,366.61c21,32,76,28,95,54s59,169,59,169l42-145s34.07-5.72,23,18c-19.67,42.2-27,178.34-48.34,197.67-23.73,21.51-47.35,4-60.67-33.64-12.89-36.42-45-115-68-145s-48-78-48-78Z"/><path class="cls-5" d="M309.89,370.61c42,49,124,47,142,41l18-6s14-5,26,9,41,102,46,122,13,53,13,53-21.46,25.76-21.46,51.76,9.11,26.23,9.11,26.23-26.66-6-32.66-22-60-161-60-161l-149,3,2,164s-13-12-31,0-24,40-21,44-6,4-6,1-17-76-5-196,35-133,48-134A42.24,42.24,0,0,1,309.89,370.61Z"/><path class="cls-4" d="M536.48,665.56a1.61,1.61,0,0,0,.44.09Z"/><path class="cls-6" d="M542.25,593.28c-8.67,2.67-23.34,33.34-23.34,33.34s-33.34-72.68-43.34-173.37l-11.9,68.31c16.42,44.11,42.21,113.32,46.25,124.09,5.49,14.64,27.62,20.75,30.66,21.42-.83-.28-2.66-1.39-4.18-5.78-.88-.8-5.89-3.14-6.82-4-8-7.33-4.67-24.67.66-44S550.92,590.61,542.25,593.28Z"/><path class="cls-6" d="M308.06,487.48l-16.53-75.57c-18,25.34-20,112-12.67,171.37,6,48.67,15,61.3,21.2,66.37a18.86,18.86,0,0,1,2.83,2l-2-164Z"/><path class="cls-5" d="M260.19,411.24c30.67,82.69,15.34,99.36,55.7,196.4,22.54,54.21,66,95,66,95s35,9,79,6,76.23-6,76.23-6-46.22-28-48.22-47-10.69-94.38.65-147.72c8.85-41.66-27.66-83.31-27.66-83.31l-61-3Z"/><path class="cls-7" d="M314.2,537.94c-5.33-19.34,22.67,6,68.68,10.67s97.35-2.67,72,5.33-94.69-4-82,21.34c14.91,29.82,32.52,58.68,58,76,16.67,11.34,56.68,22,18,16s-80-51.35-98-80.69S315.39,542.25,314.2,537.94Z"/><path class="cls-8" d="M416.08,381.4c.41-20,5.27-54,11-67.32,4.67-10.9-14.63-24.58-25.95-31.46l-9.58-.41q-2.19,4.77-4.1,9.48C377.31,358.07,407.56,385.5,422,391c6.23,2.38,13.21,2.65,19.18,2.11C432.27,390,423.58,386.35,416.08,381.4Z"/><path class="cls-9" d="M397.76,410.92a45.26,45.26,0,0,1-10.65-1.29c-8.34-2-28.25-9.77-32.88-37.54a1.11,1.11,0,1,1,2.18-.37c4.41,26.48,23.31,33.83,31.23,35.76,12.3,3,25.35.23,30.36-6.46,4-5.35,1.61-16.77,1.59-16.88a1.11,1.11,0,0,1,2.16-.47c.11.51,2.65,12.51-2,18.68C415.67,407.81,407.22,410.92,397.76,410.92Z"/><path class="cls-3" d="M491.88,304.33c-6.79,35.82-22.46,64.72-49,59.28s-54.39-43.29-47.06-79,34.78-60.25,61.3-54.8S500.92,256.59,491.88,304.33Z"/><path class="cls-3" d="M586.26,481.26s-49,131.69-51.35,145.36S537.25,649,538.58,649s43-71.35,43-71.35Z"/><path class="cls-3" d="M588.26,475.48c4-13.34-2.23-30.23-2.23-30.23l17.78,2.22Z"/><path class="cls-10" d="M607.79,452.73H558.18a4.5,4.5,0,0,1-4.31-5.79l31.32-105a4.49,4.49,0,0,1,4.31-3.21h49.62a4.5,4.5,0,0,1,4.31,5.78l-31.32,105A4.5,4.5,0,0,1,607.79,452.73Z"/><path class="cls-11" d="M614,452.73H564.4a4.5,4.5,0,0,1-4.31-5.79l31.32-105a4.49,4.49,0,0,1,4.31-3.21h49.62a4.5,4.5,0,0,1,4.31,5.78l-31.32,105A4.49,4.49,0,0,1,614,452.73Z"/><path class="cls-12" d="M578.1,376.61c-5.29,19.06-8.85,34.71-8,35s5.92-15,11.21-34.05,8.85-34.71,7.95-35S583.39,357.56,578.1,376.61Z"/><path class="cls-3" d="M611.82,483.93c1.46-17.32,16.46-33.55,22.17-38.73a8.16,8.16,0,0,0,2.69-6.15c-.08-8.64-.46-29-2.25-31.4-2.27-3-7.95-42-10.6-40.53s.75,35.61.75,35.61-6.44-3-9.84-4.55-17.43,14-17.43,14-6.57,16.6,11.4,9.49c21.33-8.45,5.33,15.11-8.9,30.23-11.72,12.45-1.74,15.21-1.74,15.21l9.47-.38Z"/><path class="cls-9" d="M606.44,497.55a17.43,17.43,0,0,1-5.14-.8c-4.61-1.44-12.67-6.08-14.8-21a1.1,1.1,0,0,1,2.18-.32c1.83,12.76,8,17.42,12.88,19.08,4,1.36,7.27.73,8.11.27a1.1,1.1,0,0,1,.68-.88,1.11,1.11,0,0,1,1.44.62,1.57,1.57,0,0,1-.35,1.66C610.66,497,608.78,497.55,606.44,497.55Z"/><path class="cls-9" d="M604.58,493.26a31.89,31.89,0,0,1-4.47-.32c-8.57-1.25-14.32-5.6-15.77-11.94a1.11,1.11,0,0,1,2.16-.49c1.38,6.05,6.88,8.62,11.25,9.72,6.13,1.53,11.88.58,12.57-.21a1.09,1.09,0,0,1,1.49-.41,1.12,1.12,0,0,1,.41,1.53C611.4,492.6,608.18,493.26,604.58,493.26Z"/><path class="cls-13" d="M461.44,323a11.28,11.28,0,0,1-1.63-.12c-8.41-1.29-13.5-12.15-11.57-24.72a29.54,29.54,0,0,1,6.51-14.89c3.52-4,7.75-5.86,11.93-5.22,8.41,1.28,13.49,12.14,11.57,24.71C476.45,314.48,469.25,323,461.44,323Zm3.64-41.18c-2.51,0-5.1,1.4-7.4,4a25.67,25.67,0,0,0-5.59,12.91c-1.54,10.07,2.27,19.35,8.31,20.27s12.45-6.79,14-16.85-2.27-19.34-8.31-20.27A6.87,6.87,0,0,0,465.08,281.79Z"/><path class="cls-13" d="M489.18,323a4.31,4.31,0,0,1-.8-.06c-5.51-.84-8.5-10.17-6.8-21.24s7.35-19.1,12.85-18.24c2.84.44,5.07,3,6.29,7.32a33.75,33.75,0,0,1,.51,13.93C499.62,315.26,494.43,323,489.18,323Zm4.43-36.65c-3.24,0-7.66,6.24-9.12,15.79-1.52,9.92,1.07,17.39,4.34,17.89s8-5.85,9.49-15.77a31,31,0,0,0-.43-12.68c-.88-3.06-2.3-5-3.91-5.21Z"/><path class="cls-13" d="M452.23,289.84a2,2,0,0,1-.54-.08l-65.34-18.67a1.95,1.95,0,0,1,1.07-3.75L452.76,286a2,2,0,0,1-.53,3.83Z"/><path class="cls-2" d="M498.9,249.21c-101.13,59.57-106.68,19.56-106.68,19.56l6-56.9,60,3.33Z"/><path class="cls-3" d="M400,282c2.35,10.07-.86,19.43-7.17,20.91s-13.35-5.49-15.7-15.56.86-19.43,7.17-20.91S397.69,271.92,400,282Z"/><path class="cls-9" d="M393.11,295.22a4,4,0,1,1-4-4A4,4,0,0,1,393.11,295.22Z"/><path class="cls-14" d="M1173.29,720.79H161.66a9.28,9.28,0,0,1,0-18.55H1173.29a9.28,9.28,0,0,1,0,18.55Z"/><path class="cls-15" d="M401.46,700.46s-38.14.48-38.62,3.86,1.45,4.83,15,7.24,165.58,3.38,167,2.42,45.86-11.59,45.86-11.59L484,700.46Z"/><path class="cls-3" d="M422.22,675.08s27.34-12,35.34-6.67,31.12,29.78,31.12,29.78Z"/><path d="M487.17,700.37c-.52.65-1.29.92-1.73.6l-56.25-41.88c-3-2.26-4.47-5.71-3-7.53s5.14-1.17,8,1.29l53.2,45.7C487.79,698.9,487.69,699.72,487.17,700.37Z"/><path class="cls-3" d="M339.54,670s45.34,18,50.68,18,35.11-20,45.12-17.34S494.24,698,492.9,700s-15.33,6.67-56.68,5.33S327.54,698,327.54,698Z"/><path class="cls-16" d="M722.14,663.91H906.95a12.48,12.48,0,0,1,12.48,12.48v14.15A12.48,12.48,0,0,1,906.95,703H722.14a5,5,0,0,1-5-5V668.89a5,5,0,0,1,5-5Z"/><path class="cls-17" d="M892.65,670.53H717.19a13.44,13.44,0,0,0-2,7v12a13.44,13.44,0,0,0,2,7H892.65A11.36,11.36,0,0,0,904,685.07v-3.21A11.36,11.36,0,0,0,892.65,670.53Z"/><path class="cls-18" d="M760.22,640.26H900.76a8.42,8.42,0,0,1,8.42,8.42v6.81a8.42,8.42,0,0,1-8.42,8.42H760.22a3.36,3.36,0,0,1-3.36-3.36V643.62A3.36,3.36,0,0,1,760.22,640.26Z"/><path class="cls-17" d="M889,644.26H756.88a7,7,0,0,0-1.47,4.21v7.23a7,7,0,0,0,1.47,4.21H889c4.69,0,8.53-3.08,8.53-6.85v-1.95C897.55,647.35,893.71,644.26,889,644.26Z"/><path class="cls-5" d="M924.8,162H774.91c-4.78,0-7.27-3.91-5.53-8.69L792.05,91c1.73-4.78,7.07-8.69,11.85-8.69H953.79c4.77,0,7.26,3.91,5.52,8.69l-22.66,62.27C934.91,158.06,929.57,162,924.8,162Z"/><path class="cls-19" d="M919.71,155.46h-135c-4.14,0-6.29-3.39-4.78-7.53l18.76-51.57c1.51-4.14,6.13-7.52,10.27-7.52H944c4.14,0,6.29,3.38,4.79,7.52L930,147.93C928.47,152.07,923.85,155.46,919.71,155.46Z"/><path class="cls-5" d="M834.39,158.35c-12.43,32.83-31.56,43-31.56,43s13.61-18.82,11.64-28a20.22,20.22,0,0,0-9.26-13Z"/><path class="cls-20" d="M930.56,107.18h-87a1.76,1.76,0,0,1-1.65-2.59l.05-.12a4.12,4.12,0,0,1,3.54-2.6h87a1.76,1.76,0,0,1,1.65,2.6l0,.12A4.14,4.14,0,0,1,930.56,107.18Z"/><path class="cls-20" d="M926.52,118.28h-87a1.76,1.76,0,0,1-1.65-2.59l0-.12a4.12,4.12,0,0,1,3.54-2.6h87a1.76,1.76,0,0,1,1.65,2.6l-.05.12A4.09,4.09,0,0,1,926.52,118.28Z"/><path class="cls-20" d="M922,130.84h-87a1.77,1.77,0,0,1-1.66-2.6l.05-.12a4.11,4.11,0,0,1,3.54-2.59h87a1.75,1.75,0,0,1,1.65,2.59l0,.12A4.12,4.12,0,0,1,922,130.84Z"/><path class="cls-20" d="M830,116.11c-3.44,9.47-12.5,17.14-20.23,17.14s-11.21-7.67-7.76-17.14S814.48,99,822.21,99,833.42,106.65,830,116.11Z"/><path class="cls-5" d="M839.6,323.93h-7.43c-1.57,0-2.38-1.28-1.8-2.84l2.22-6.12a4.5,4.5,0,0,1,3.88-2.84h7.42c1.57,0,2.38,1.27,1.81,2.84l-2.23,6.12A4.5,4.5,0,0,1,839.6,323.93Z"/><path class="cls-5" d="M863.43,323.93H856c-1.57,0-2.38-1.28-1.81-2.84l2.23-6.12a4.48,4.48,0,0,1,3.87-2.84h7.43c1.57,0,2.38,1.27,1.81,2.84l-2.23,6.12A4.51,4.51,0,0,1,863.43,323.93Z"/><path class="cls-5" d="M887.27,323.93h-7.43c-1.57,0-2.38-1.28-1.81-2.84l2.23-6.12a4.5,4.5,0,0,1,3.88-2.84h7.42c1.57,0,2.38,1.27,1.81,2.84l-2.23,6.12A4.5,4.5,0,0,1,887.27,323.93Z"/><path class="cls-5" d="M745.16,276.86H595.27c-4.78,0-7.27-3.91-5.53-8.69l22.67-62.27c1.74-4.78,7.07-8.69,11.85-8.69H774.15c4.78,0,7.27,3.91,5.53,8.69L757,268.17C755.27,273,749.94,276.86,745.16,276.86Z"/><path class="cls-19" d="M740.08,270.34h-135c-4.14,0-6.3-3.38-4.79-7.52l18.77-51.57c1.5-4.14,6.12-7.52,10.26-7.52h135c4.14,0,6.3,3.38,4.79,7.52l-18.77,51.57C748.84,267,744.22,270.34,740.08,270.34Z"/><path class="cls-5" d="M602.86,273.24c-11.46,32.83.3,43,.3,43s.09-18.83,8.74-28a56.63,56.63,0,0,1,18.74-13Z"/><path class="cls-20" d="M703.44,226.42H630A1.62,1.62,0,0,1,628.5,224l.19-.53a3.79,3.79,0,0,1,3.26-2.39h73.43a1.62,1.62,0,0,1,1.52,2.39l-.2.53A3.8,3.8,0,0,1,703.44,226.42Z"/><path class="cls-20" d="M699.4,237.52H626a1.62,1.62,0,0,1-1.52-2.39l.19-.53a3.81,3.81,0,0,1,3.26-2.39h73.42a1.62,1.62,0,0,1,1.52,2.39l-.19.53A3.8,3.8,0,0,1,699.4,237.52Z"/><path class="cls-20" d="M694.83,250.07H621.41a1.62,1.62,0,0,1-1.52-2.39l.19-.53a3.81,3.81,0,0,1,3.26-2.39h73.43a1.63,1.63,0,0,1,1.52,2.39l-.2.53A3.78,3.78,0,0,1,694.83,250.07Z"/><path class="cls-5" d="M881.69,347.34H737c-2.59,0-3.94-1.07-3-2.39l.38-.53c.94-1.31,3.83-2.39,6.42-2.39H885.5c2.59,0,3.94,1.08,3,2.39l-.38.53C887.17,346.27,884.28,347.34,881.69,347.34Z"/><path class="cls-5" d="M873.73,365.68H729.06c-2.59,0-3.93-1.07-3-2.38l.38-.54c.94-1.31,3.83-2.38,6.42-2.38H877.54c2.59,0,3.94,1.07,3,2.38l-.38.54C879.21,364.61,876.32,365.68,873.73,365.68Z"/><path class="cls-20" d="M729,254.41H718.33c-4.78,0-7.27-3.9-5.53-8.68L720.71,224c1.74-4.78,7.07-8.69,11.85-8.69h10.62c4.78,0,7.27,3.91,5.53,8.69l-7.91,21.73C739.06,250.51,733.73,254.41,729,254.41Z"/><path class="cls-21" d="M1099.45,674.23c19.28-105.79,15.06-143.63-36.58-230s-56.57-247-76-199.91S970,409.83,1031,467.27s69.22,83.15,72.84,106.53-8.71,95.23-8.71,95.23Z"/><path class="cls-22" d="M1109.11,606.06c0-.41.06-.81.08-1.22-1.13-8.67-7.26-53.31-15.74-70.92-9.41-19.55-50.68-53.59-62.27-96.31s-30-75.83-42-102.82c-15.9-35.63-7.21-83,5.94-98.39a3.42,3.42,0,0,0-1-.44l-4.37,2.64a31.54,31.54,0,0,0-3,5.75C967.37,291.48,970,409.83,1031,467.27s69.22,83.15,72.84,106.53c1,6.31.79,16.14,0,27.14Z"/><path class="cls-21" d="M1073.09,655.57c14.35-124.32,9.57-167.35-18.16-266.81s153-326.09,147.26-286.89-24.86,136.75-74.59,198-53.55,110.93-44,163.52-1.91,175-1.91,175l-5.74,22Z"/><path class="cls-22" d="M1079.7,603.91h0a1.2,1.2,0,0,1-1.15-1.25c0-.38,1.44-38.71.72-70.16s-9.25-85.44-14.44-104c-4.72-16.87-10.67-73.47,18.19-131.91,14.37-29.12,25.84-47.52,41.71-73,15.69-25.17,35.22-56.51,66.21-111.71a1.2,1.2,0,0,1,2.09,1.18c-31,55.24-50.56,86.61-66.26,111.8-15.84,25.42-27.28,43.78-41.6,72.79-28.52,57.77-22.68,113.58-18,130.21,5.23,18.64,13.81,72.91,14.53,104.56s-.71,69.93-.72,70.31A1.21,1.21,0,0,1,1079.7,603.91Z"/><path class="cls-21" d="M1077.88,700.23c8.6-83.2,10-42.17-25.7-155.21-40.91-129.38,105.07-244.24,129-197.38S1232.8,541.77,1222.28,537,1142,395.45,1140,401.19s-94.67,53.55-90.84,102.33,39.21,126.23,39.21,126.23l-1,71.43Z"/><path class="cls-22" d="M1087.44,700.21h-.12l-9.56-1a1.18,1.18,0,0,1-.81-.44,1.16,1.16,0,0,1-.27-.88c1-9.61,1.91-17.7,2.65-24.21,4-35.32,4-35.32-7-65.58-4.95-13.67-11.73-32.4-21.33-62.76a154.66,154.66,0,0,1-5.52-69.93,179.46,179.46,0,0,1,21.32-61.23c18.93-33.84,48.73-62.9,75.91-74,18.89-7.74,33.28-5.22,39.47,6.91,10.15,19.89,22.29,60.62,32.46,108.94,5.87,27.89,14.5,76.46,9.6,81.59a2.11,2.11,0,0,1-2.5.46c-5.74-2.61-24.74-36.14-51-83.23-13.14-23.6-26.71-48-30.37-52.16-1.47,1.64-5.2,4.21-12.92,9.44-26,17.63-80,54.3-77.15,91.29,3.77,48,38.75,125.05,39.11,125.83a1.3,1.3,0,0,1,.11.51l-1,69.27a1.21,1.21,0,0,1-.4.88A1.24,1.24,0,0,1,1087.44,700.21Zm-8.25-3.23,7.07.71.93-67.69c-2.2-4.89-35.51-79.34-39.2-126.39-3-38.39,51.84-75.59,78.2-93.46,6.26-4.25,12.17-8.26,12.72-9.37a1.4,1.4,0,0,1,1.2-1c2.32-.21,6.9,7.34,32.81,53.87,18.59,33.39,44,79,49.73,82.14.44-.72,1.74-4.64-.79-24.83-1.83-14.6-5.19-33.81-9.45-54.09-10.15-48.3-22.23-88.94-32.32-108.73-5.56-10.88-18.84-13-36.43-5.78C1096,361.94,1023,448.62,1053.33,544.66c9.58,30.31,16.35,49,21.3,62.66,11.16,30.79,11.16,30.79,7.09,66.67C1081,680.54,1080.14,687.93,1079.19,697Z"/><path class="cls-18" d="M1107.93,703.68h-43.39c-3,0-5.65-1.7-5.94-3.81L1044,590.24c-.67-5,2.67-9.31,7.45-9.31H1121c4.78,0,8.13,4.26,7.45,9.31l-14.58,109.63C1113.58,702,1110.91,703.68,1107.93,703.68Z"/><path class="cls-23" d="M1102.79,699.9h-6.22c-3,0-5.48-1.76-5.43-3.95l2.19-94.7a8.84,8.84,0,0,1,8.58-8.67h9.43a7.58,7.58,0,0,1,7.46,8.67L1108.73,696C1108.5,698.14,1105.83,699.9,1102.79,699.9Z"/><path class="cls-22" d="M1056.53,546.47l.76-1.34a274.53,274.53,0,0,1-6.66-29.7A151.19,151.19,0,0,0,1056.53,546.47Z"/><path class="cls-22" d="M1056.53,466.34A89.08,89.08,0,0,0,1051,488c12.81-42.05,84.14-80,88.78-86.42l.82-1.61C1113.85,392.48,1071,430.13,1056.53,466.34Z"/><path class="cls-22" d="M1222.34,534.39a1.19,1.19,0,0,1-1.16-.91l-13-52.73c-10.12-41.32-22.72-92.75-36.86-115.64-2.33-3.78-12.51-8.88-26.94-7.86-19.49,1.38-57.06,14.84-89.69,89.53a1.2,1.2,0,1,1-2.2-1c33.14-75.84,71.69-89.55,91.73-91,15.58-1.09,26.43,4.6,29.14,9,14.34,23.21,26.46,72.68,37.15,116.33l13,52.73a1.2,1.2,0,0,1-.88,1.45A1.43,1.43,0,0,1,1222.34,534.39Z"/><path class="cls-22" d="M1184.33,465.6h-.14a1.2,1.2,0,0,1-1-1.34c0-.43,4.9-43.77-6.49-89.35a1.2,1.2,0,1,1,2.33-.59c11.5,46,6.59,89.79,6.54,90.22A1.2,1.2,0,0,1,1184.33,465.6Z"/><path class="cls-22" d="M1170.93,438.81h-.14a1.19,1.19,0,0,1-1-1.33c0-.4,4.65-40.08,1.45-72.88a1.19,1.19,0,0,1,1.07-1.31,1.21,1.21,0,0,1,1.32,1.08c3.23,33.06-1.41,73-1.46,73.39A1.2,1.2,0,0,1,1170.93,438.81Z"/><path class="cls-22" d="M1125.31,225.93a1.2,1.2,0,0,1-.51-2.29c.34-.16,34.65-16.94,54.49-53.79a1.2,1.2,0,1,1,2.11,1.14c-20.22,37.56-55.22,54.65-55.57,54.82A1.17,1.17,0,0,1,1125.31,225.93Z"/><path class="cls-22" d="M1100,269.37a1.2,1.2,0,0,1-.24-2.37c.28-.06,28.38-6.08,61.76-33.07a1.2,1.2,0,1,1,1.51,1.87c-33.87,27.38-62.5,33.49-62.79,33.55A1,1,0,0,1,1100,269.37Z"/><path class="cls-22" d="M1079,311.39c-.49,0-.79,0-.87,0a1.2,1.2,0,0,1,.18-2.4c.19,0,19.56,1.07,50.6-22.21a1.2,1.2,0,0,1,1.44,1.92C1101.88,310.06,1083.22,311.39,1079,311.39Z"/><path class="cls-24" d="M618.55,357.35l-12.2,9.29c-.84.64-1.76.72-2.06.17L601.12,361c-.93-1.72.45-4.74,3.08-6.74l.9-.69c.68-.52,1.08-1.31.86-1.77s-1-.42-1.69.11l-.95.73c-4,3-6.1,7.63-4.68,10.25l1.34,2.47c.19.35-.09,1-.63,1.38l-.74.57c-.84.64-1.77.71-2.06.16l-4.32-8c-.3-.55.14-1.52,1-2.16l12.2-9.3c.85-.64,1.77-.71,2.07-.16l3.17,5.85c.93,1.72-.45,4.73-3.08,6.74l-.9.69c-.68.51-1.09,1.3-.87,1.76s1,.42,1.69-.11l1-.72c4-3.05,6.09-7.64,4.68-10.25l-1.34-2.48c-.19-.35.09-1,.63-1.38l.74-.56c.84-.64,1.76-.72,2.06-.17l4.32,8C619.84,355.74,619.4,356.71,618.55,357.35Z"/></g></g></svg>